<svg width="200" height="200" viewBox="0 0 200 200" fill="none" xmlns="http://www.w3.org/2000/svg">
<g clip-path="url(#clip0_5_2)">
<path fill-rule="evenodd" clip-rule="evenodd" d="M56 150.25C56 148.592 56.6585 147.003 57.8306 145.831C59.0027 144.658 60.5924 144 62.25 144H187.25C188.908 144 190.497 144.658 191.669 145.831C192.842 147.003 193.5 148.592 193.5 150.25C193.5 151.908 192.842 153.497 191.669 154.669C190.497 155.842 188.908 156.5 187.25 156.5H62.25C60.5924 156.5 59.0027 155.842 57.8306 154.669C56.6585 153.497 56 151.908 56 150.25ZM31 100.25C31 98.5924 31.6585 97.0027 32.8306 95.8306C34.0027 94.6585 35.5924 94 37.25 94H162.25C163.908 94 165.497 94.6585 166.669 95.8306C167.842 97.0027 168.5 98.5924 168.5 100.25C168.5 101.908 167.842 103.497 166.669 104.669C165.497 105.842 163.908 106.5 162.25 106.5H37.25C35.5924 106.5 34.0027 105.842 32.8306 104.669C31.6585 103.497 31 101.908 31 100.25ZM6 50.25C6 48.5924 6.65848 47.0027 7.83058 45.8306C9.00268 44.6585 10.5924 44 12.25 44H137.25C138.908 44 140.497 44.6585 141.669 45.8306C142.842 47.0027 143.5 48.5924 143.5 50.25C143.5 51.9076 142.842 53.4973 141.669 54.6694C140.497 55.8415 138.908 56.5 137.25 56.5H12.25C10.5924 56.5 9.00268 55.8415 7.83058 54.6694C6.65848 53.4973 6 51.9076 6 50.25Z" fill="#525252"/>
</g>
<defs>
<clipPath id="clip0_5_2">
<rect width="200" height="200" fill="white"/>
</clipPath>
</defs>
</svg>
