<svg width="200" height="200" viewBox="0 0 200 200" fill="none" xmlns="http://www.w3.org/2000/svg">
<g clip-path="url(#clip0_5_8)">
<path d="M26.8329 35.6829C26.2518 35.1018 25.7908 34.4119 25.4764 33.6527C25.1619 32.8934 25 32.0797 25 31.2579C25 30.4361 25.1619 29.6223 25.4764 28.8631C25.7908 28.1039 26.2518 27.414 26.8329 26.8329C27.414 26.2518 28.1039 25.7908 28.8631 25.4764C29.6223 25.1619 30.4361 25 31.2579 25C32.0797 25 32.8934 25.1619 33.6527 25.4764C34.4119 25.7908 35.1018 26.2518 35.6829 26.8329L100.008 91.1704L164.333 26.8329C164.914 26.2518 165.604 25.7908 166.363 25.4764C167.122 25.1619 167.936 25 168.758 25C169.58 25 170.393 25.1619 171.153 25.4764C171.912 25.7908 172.602 26.2518 173.183 26.8329C173.764 27.414 174.225 28.1039 174.539 28.8631C174.854 29.6223 175.016 30.4361 175.016 31.2579C175.016 32.0797 174.854 32.8934 174.539 33.6527C174.225 34.4119 173.764 35.1018 173.183 35.6829L108.845 100.008L173.183 164.333C173.764 164.914 174.225 165.604 174.539 166.363C174.854 167.122 175.016 167.936 175.016 168.758C175.016 169.58 174.854 170.393 174.539 171.153C174.225 171.912 173.764 172.602 173.183 173.183C172.602 173.764 171.912 174.225 171.153 174.539C170.393 174.854 169.58 175.016 168.758 175.016C167.936 175.016 167.122 174.854 166.363 174.539C165.604 174.225 164.914 173.764 164.333 173.183L100.008 108.845L35.6829 173.183C35.1018 173.764 34.4119 174.225 33.6527 174.539C32.8934 174.854 32.0797 175.016 31.2579 175.016C30.4361 175.016 29.6223 174.854 28.8631 174.539C28.1039 174.225 27.414 173.764 26.8329 173.183C26.2518 172.602 25.7908 171.912 25.4764 171.153C25.1619 170.393 25 169.58 25 168.758C25 167.936 25.1619 167.122 25.4764 166.363C25.7908 165.604 26.2518 164.914 26.8329 164.333L91.1704 100.008L26.8329 35.6829Z" fill="#525252"/>
</g>
<defs>
<clipPath id="clip0_5_8">
<rect width="200" height="200" fill="white"/>
</clipPath>
</defs>
</svg>
