<svg width="1000" height="1000" viewBox="0 0 1000 1000" fill="none" xmlns="http://www.w3.org/2000/svg">
<rect x="138.225" y="192.117" width="498" height="748" transform="rotate(-15 138.225 192.117)" fill="white" stroke="#404040" stroke-width="2"/>
<rect x="165.377" y="163.847" width="498" height="748" transform="rotate(-10 165.377 163.847)" fill="white" stroke="#404040" stroke-width="2"/>
<rect x="194.89" y="138.052" width="498" height="748" transform="rotate(-5 194.89 138.052)" fill="white" stroke="#404040" stroke-width="2"/>
<rect x="393.932" y="63.392" width="498" height="748" transform="rotate(20 393.932 63.392)" fill="white" stroke="#404040" stroke-width="2"/>
<line x1="404.171" y1="173.53" x2="649.173" y2="262.704" stroke="black"/>
<line x1="415.171" y1="202.53" x2="791.386" y2="339.461" stroke="black"/>
<line x1="392.171" y1="217.53" x2="637.173" y2="306.704" stroke="black"/>
<line x1="373.171" y1="232.53" x2="540.241" y2="293.339" stroke="black"/>
<line x1="367.508" y1="285.53" x2="612.51" y2="374.704" stroke="black"/>
<line x1="378.524" y1="314.488" x2="664.493" y2="418.572" stroke="black"/>
<line x1="355.508" y1="329.53" x2="600.51" y2="418.704" stroke="black"/>
<line x1="336.508" y1="344.53" x2="503.578" y2="405.339" stroke="black"/>
<line x1="336.171" y1="370.448" x2="638.845" y2="480.612" stroke="black"/>
<line x1="308.171" y1="427.53" x2="553.173" y2="516.704" stroke="black"/>
<line x1="296.171" y1="471.53" x2="541.173" y2="560.704" stroke="black"/>
<line x1="303.834" y1="453.53" x2="470.904" y2="514.339" stroke="black"/>
<path d="M436.373 128.642L453.474 81.6575C455.363 76.4678 452.687 70.7293 447.497 68.8404V68.8404C442.308 66.9515 436.569 69.6274 434.68 74.8171L417.579 121.802" stroke="#404040" stroke-width="2"/>
<path d="M430.918 85.1537L415.527 127.44C414.583 130.035 415.921 132.904 418.516 133.848V133.848C421.11 134.793 423.98 133.455 424.924 130.86L440.315 88.5739" stroke="#404040" stroke-width="2"/>
<path d="M417.533 92.6917L406.13 124.02C403.297 131.804 407.311 140.412 415.095 143.245V143.245C422.88 146.079 431.488 142.065 434.321 134.28L445.724 102.952" stroke="#404040" stroke-width="2"/>
<rect x="431.762" y="653.923" width="148" height="18" transform="rotate(10 431.762 653.923)" fill="#E6E6E6" stroke="#404040" stroke-width="2"/>
<rect x="286.358" y="626.254" width="148" height="18" transform="rotate(10 286.358 626.254)" fill="white" stroke="#404040" stroke-width="2"/>
<path d="M577.912 677.366L615.048 692.334L575.032 693.699L577.912 677.366Z" stroke="#404040" stroke-width="2"/>
<path d="M267.069 631.991C267.932 627.096 272.6 623.828 277.495 624.691L286.358 626.254L283.232 643.98L274.369 642.417C269.474 641.554 266.205 636.886 267.069 631.991Z" stroke="#404040" stroke-width="2"/>
<rect x="416.063" y="694.679" width="148" height="18" transform="rotate(50 416.063 694.679)" fill="#E6E6E6" stroke="#404040" stroke-width="2"/>
<rect x="322.463" y="580.019" width="148" height="18" transform="rotate(50 322.463 580.019)" fill="white" stroke="#404040" stroke-width="2"/>
<path d="M512.952 806.58L531.778 841.917L500.247 817.24L512.952 806.58Z" stroke="#404040" stroke-width="2"/>
<path d="M303.998 572.015C307.806 568.82 313.483 569.316 316.678 573.124L322.463 580.018L308.674 591.589L302.889 584.694C299.694 580.887 300.19 575.21 303.998 572.015Z" stroke="#404040" stroke-width="2"/>
</svg>
